<svg width="20" height="20" viewBox="0 0 20 20" fill="none" xmlns="http://www.w3.org/2000/svg">
<path d="M7.16669 15.4998V12.8332H4.50002V15.4998H7.16669ZM11.3334 15.4998V13.4582L10.7084 12.8332H8.66669V15.4998H11.3334ZM7.16669 11.3332V9.31234L6.52085 8.6665H4.50002V11.3332H7.16669ZM15.5 11.3332V8.6665H12.8334V10.7082L13.4584 11.3332H15.5ZM11.3334 7.1665V4.49984H8.66669V6.5415L9.29169 7.1665H11.3334ZM15.5 7.1665V4.49984H12.8334V7.1665H15.5ZM17 14.8748L5.12502 2.99984H15.5C15.9125 2.99984 16.2656 3.14671 16.5594 3.44046C16.8531 3.73421 17 4.08734 17 4.49984V14.8748ZM4.50002 16.9998C4.08752 16.9998 3.7344 16.853 3.44065 16.5592C3.1469 16.2655 3.00002 15.9123 3.00002 15.4998V2.99984L17 16.9998H4.50002ZM16.7292 18.8332L1.16669 3.27067L2.22919 2.229L17.7709 17.7707L16.7292 18.8332Z" fill="#EEEEEE" style="fill:#EEEEEE;fill:color(display-p3 0.9342 0.9342 0.9342);fill-opacity:1;"/>
</svg>
