<svg width="20" height="20" viewBox="0 0 20 20" fill="none" xmlns="http://www.w3.org/2000/svg">
<path d="M4.5 17C4.0875 17 3.73437 16.8531 3.44062 16.5594C3.14687 16.2656 3 15.9125 3 15.5V4.5C3 4.0875 3.14687 3.73438 3.44062 3.44063C3.73437 3.14688 4.0875 3 4.5 3H15.5C15.9125 3 16.2656 3.14688 16.5594 3.44063C16.8531 3.73438 17 4.0875 17 4.5V15.5C17 15.9125 16.8531 16.2656 16.5594 16.5594C16.2656 16.8531 15.9125 17 15.5 17H4.5ZM4.5 15.5H7.16667V12.8333H4.5V15.5ZM8.66667 15.5H11.3333V12.8333H8.66667V15.5ZM12.8333 15.5H15.5V12.8333H12.8333V15.5ZM4.5 11.3333H7.16667V8.66667H4.5V11.3333ZM8.66667 11.3333H11.3333V8.66667H8.66667V11.3333ZM12.8333 11.3333H15.5V8.66667H12.8333V11.3333ZM4.5 7.16667H7.16667V4.5H4.5V7.16667ZM8.66667 7.16667H11.3333V4.5H8.66667V7.16667ZM12.8333 7.16667H15.5V4.5H12.8333V7.16667Z" fill="#EEEEEE" style="fill:#EEEEEE;fill:color(display-p3 0.9342 0.9342 0.9342);fill-opacity:1;"/>
</svg>
