<svg width="20" height="20" viewBox="0 0 20 20" fill="none" xmlns="http://www.w3.org/2000/svg">
<path d="M10.75 6L9.25 6L9.25 11L10.75 11L10.75 6ZM10.0044 12.5C9.79312 12.5 9.61458 12.5715 9.46875 12.7144C9.32292 12.8573 9.25 13.0344 9.25 13.2456C9.25 13.4569 9.32146 13.6354 9.46437 13.7812C9.60729 13.9271 9.78438 14 9.99562 14C10.2069 14 10.3854 13.9285 10.5313 13.7856C10.6771 13.6427 10.75 13.4656 10.75 13.2544C10.75 13.0431 10.6785 12.8646 10.5356 12.7187C10.3927 12.5729 10.2156 12.5 10.0044 12.5ZM9.99417 2C11.0953 2 12.1319 2.20833 13.1042 2.625C14.0764 3.04167 14.9271 3.61458 15.6563 4.34375C16.3854 5.07292 16.9583 5.92333 17.375 6.895C17.7917 7.86667 18 8.90486 18 10.0096C18 11.1143 17.7917 12.1493 17.375 13.1146C16.9583 14.0799 16.3854 14.9271 15.6563 15.6562C14.9271 16.3854 14.0767 16.9583 13.105 17.375C12.1333 17.7917 11.0951 18 9.99042 18C8.88569 18 7.85069 17.7917 6.88542 17.375C5.92014 16.9583 5.07292 16.3854 4.34375 15.6562C3.61458 14.9271 3.04167 14.0783 2.625 13.11C2.20833 12.1415 2 11.1068 2 10.0058C2 8.90472 2.20833 7.86805 2.625 6.89583C3.04167 5.92361 3.61458 5.07291 4.34375 4.34375C5.07292 3.61458 5.92167 3.04166 6.89 2.625C7.85847 2.20833 8.8932 2 9.99417 2ZM10 3.5C8.19445 3.5 6.65972 4.13194 5.39583 5.39583C4.13194 6.65972 3.5 8.19444 3.5 10C3.5 11.8056 4.13194 13.3403 5.39583 14.6042C6.65972 15.8681 8.19444 16.5 10 16.5C11.8056 16.5 13.3403 15.8681 14.6042 14.6042C15.8681 13.3403 16.5 11.8056 16.5 10C16.5 8.19444 15.8681 6.65972 14.6042 5.39583C13.3403 4.13194 11.8056 3.5 10 3.5Z" fill="#EEEEEE" style="fill:#EEEEEE;fill:color(display-p3 0.9342 0.9342 0.9342);fill-opacity:1;"/>
</svg>
