<svg width="20" height="20" viewBox="0 0 20 20" fill="none" xmlns="http://www.w3.org/2000/svg">
<g clip-path="url(#clip0_59142_9047)">
<path d="M16.9509 5.40332C17.85 6.7622 18.3309 8.35481 18.3343 9.98416C18.3376 11.6135 17.8633 13.2081 16.9699 14.5707C16.0765 15.9333 14.8032 17.004 13.3076 17.6506C11.812 18.2971 10.1597 18.491 8.5551 18.2083" stroke="white" style="stroke:white;stroke-opacity:1;" stroke-width="1.66667" stroke-linecap="round" stroke-linejoin="round"/>
<path d="M3.04921 14.5965C2.15021 13.2373 1.66946 11.6443 1.66647 10.0146C1.66348 8.38501 2.13837 6.79026 3.03239 5.42773C3.9264 4.06521 5.20029 2.99471 6.69643 2.34872C8.19256 1.70272 9.84527 1.50958 11.45 1.79318" stroke="white" style="stroke:white;stroke-opacity:1;" stroke-width="1.66667" stroke-linecap="round" stroke-linejoin="round"/>
<path d="M10 12.5C11.3807 12.5 12.5 11.3807 12.5 10C12.5 8.61929 11.3807 7.5 10 7.5C8.61929 7.5 7.5 8.61929 7.5 10C7.5 11.3807 8.61929 12.5 10 12.5Z" stroke="white" style="stroke:white;stroke-opacity:1;" stroke-width="1.66667" stroke-linecap="round" stroke-linejoin="round"/>
<path d="M15.8333 5.83333C16.7538 5.83333 17.5 5.08714 17.5 4.16667C17.5 3.24619 16.7538 2.5 15.8333 2.5C14.9129 2.5 14.1667 3.24619 14.1667 4.16667C14.1667 5.08714 14.9129 5.83333 15.8333 5.83333Z" stroke="white" style="stroke:white;stroke-opacity:1;" stroke-width="1.66667" stroke-linecap="round" stroke-linejoin="round"/>
<path d="M4.16667 17.4998C5.08714 17.4998 5.83333 16.7536 5.83333 15.8332C5.83333 14.9127 5.08714 14.1665 4.16667 14.1665C3.24619 14.1665 2.5 14.9127 2.5 15.8332C2.5 16.7536 3.24619 17.4998 4.16667 17.4998Z" stroke="white" style="stroke:white;stroke-opacity:1;" stroke-width="1.66667" stroke-linecap="round" stroke-linejoin="round"/>
</g>
<defs>
<clipPath id="clip0_59142_9047">
<rect width="20" height="20" fill="white" style="fill:white;fill-opacity:1;"/>
</clipPath>
</defs>
</svg>
