<svg width="20" height="20" viewBox="0 0 20 20" fill="none" xmlns="http://www.w3.org/2000/svg">
<path d="M4.5 16V14.5H6.04167C5.41667 13.9444 4.92014 13.2812 4.55208 12.5104C4.18403 11.7396 4 10.9028 4 10C4 8.59722 4.42361 7.36458 5.27083 6.30208C6.11806 5.23958 7.19444 4.54167 8.5 4.20833V5.77083C7.625 6.09028 6.90625 6.62847 6.34375 7.38542C5.78125 8.14236 5.5 9.01389 5.5 10C5.5 10.6667 5.63542 11.2847 5.90625 11.8542C6.17708 12.4236 6.54167 12.9097 7 13.3125V12H8.5V16H4.5ZM11.5 15.7917V14.2292C12.375 13.9097 13.0938 13.3715 13.6562 12.6146C14.2188 11.8576 14.5 10.9861 14.5 10C14.5 9.33333 14.3646 8.71528 14.0938 8.14583C13.8229 7.57639 13.4583 7.09028 13 6.6875V8H11.5V4H15.5V5.5H13.9583C14.5833 6.05556 15.0799 6.71875 15.4479 7.48958C15.816 8.26042 16 9.09722 16 10C16 11.4028 15.5764 12.6354 14.7292 13.6979C13.8819 14.7604 12.8056 15.4583 11.5 15.7917Z" fill="#EEEEEE" style="fill:#EEEEEE;fill:color(display-p3 0.9342 0.9342 0.9342);fill-opacity:1;"/>
</svg>
